<?xml version="1.0" encoding="UTF-8" standalone="no"?>
<!-- Generator: Adobe Illustrator 19.1.0, SVG Export Plug-In . SVG Version: 6.00 Build 0)  -->

<svg
   xmlns:dc="http://purl.org/dc/elements/1.1/"
   xmlns:cc="http://creativecommons.org/ns#"
   xmlns:rdf="http://www.w3.org/1999/02/22-rdf-syntax-ns#"
   xmlns:svg="http://www.w3.org/2000/svg"
   xmlns="http://www.w3.org/2000/svg"
   xmlns:sodipodi="http://sodipodi.sourceforge.net/DTD/sodipodi-0.dtd"
   xmlns:inkscape="http://www.inkscape.org/namespaces/inkscape"
   version="1.1"
   id="Capa_1"
   x="0px"
   y="0px"
   viewBox="0 0 512 512"
   style="enable-background:new 0 0 512 512;"
   xml:space="preserve"
   sodipodi:docname="store.svg"
   inkscape:version="0.92.3 (2405546, 2018-03-11)"><metadata
   id="metadata133"><rdf:RDF><cc:Work
       rdf:about=""><dc:format>image/svg+xml</dc:format><dc:type
         rdf:resource="http://purl.org/dc/dcmitype/StillImage" /><dc:title></dc:title></cc:Work></rdf:RDF></metadata><defs
   id="defs131" /><sodipodi:namedview
   pagecolor="#ffffff"
   bordercolor="#666666"
   borderopacity="1"
   objecttolerance="10"
   gridtolerance="10"
   guidetolerance="10"
   inkscape:pageopacity="0"
   inkscape:pageshadow="2"
   inkscape:window-width="1366"
   inkscape:window-height="745"
   id="namedview129"
   showgrid="false"
   inkscape:zoom="0.921875"
   inkscape:cx="389.98066"
   inkscape:cy="328.65057"
   inkscape:window-x="-8"
   inkscape:window-y="-8"
   inkscape:window-maximized="1"
   inkscape:current-layer="g96" />
<g
   id="g96">
	<g
   id="g4">
		<rect
   x="32"
   y="132"
   style="fill:#FFE1B2;"
   width="448"
   height="312"
   id="rect2" />
	</g>
	<g
   id="g8">
		<rect
   x="32"
   y="396"
   style="fill:#FFB980;"
   width="448"
   height="48"
   id="rect6" />
	</g>
	<g
   id="g12">
		<rect
   x="32"
   y="116"
   style="fill:#FFB980;"
   width="448"
   height="56"
   id="rect10" />
	</g>
	<g
   id="g16">
		<path
   style="fill:#7E5C62;"
   d="M192,188H80c-4.418,0-8,3.582-8,8v240h128V196C200,191.582,196.418,188,192,188z"
   id="path14" />
	</g>
	<g
   id="g22">
		<g
   id="g20">
			<path
   style="fill:#5C546A;"
   d="M504,452H8c-4.422,0-8-3.578-8-8s3.578-8,8-8h496c4.422,0,8,3.578,8,8S508.422,452,504,452z"
   id="path18" />
		</g>
	</g>
	<g
   id="g28">
		<g
   id="g26">
			<path
   style="fill:#5C546A;"
   d="M176,340c-4.422,0-8-3.578-8-8v-16c0-4.422,3.578-8,8-8s8,3.578,8,8v16     C184,336.422,180.422,340,176,340z"
   id="path24" />
		</g>
	</g>
	<g
   id="g32"
   style="fill:#f9f9f9">
		<path
   style="fill:#f9f9f9"
   d="M40,156L40,156c-13.255,0-24-10.745-24-24V76c0-8.837,7.163-16,16-16h32v72    C64,145.255,53.255,156,40,156z"
   id="path30" />
	</g>
	<g
   id="g36">
		<path
   style="fill:#E9001E;"
   d="M88,156L88,156c-13.255,0-24-10.745-24-24V60h48v72C112,145.255,101.255,156,88,156z"
   id="path34" />
	</g>
	<g
   id="g40"
   style="fill:#f9f9f9">
		<path
   style="fill:#f9f9f9"
   d="M136,156L136,156c-13.255,0-24-10.745-24-24V60h48v72C160,145.255,149.255,156,136,156z"
   id="path38" />
	</g>
	<g
   id="g44">
		<path
   style="fill:#E9001E;"
   d="M184,156L184,156c-13.255,0-24-10.745-24-24V60h48v72C208,145.255,197.255,156,184,156z"
   id="path42" />
	</g>
	<g
   id="g48"
   style="fill:#f9f9f9">
		<path
   style="fill:#f9f9f9"
   d="M232,156L232,156c-13.255,0-24-10.745-24-24V60h48v72C256,145.255,245.255,156,232,156z"
   id="path46" />
	</g>
	<g
   id="g52">
		<path
   style="fill:#E9001E;"
   d="M280,156L280,156c-13.255,0-24-10.745-24-24V60h48v72C304,145.255,293.255,156,280,156z"
   id="path50" />
	</g>
	<g
   id="g56"
   style="fill:#f9f9f9">
		<path
   style="fill:#f9f9f9"
   d="M328,156L328,156c-13.255,0-24-10.745-24-24V60h48v72C352,145.255,341.255,156,328,156z"
   id="path54" />
	</g>
	<g
   id="g60">
		<path
   style="fill:#E9001E;"
   d="M376,156L376,156c-13.255,0-24-10.745-24-24V60h48v72C400,145.255,389.255,156,376,156z"
   id="path58" />
	</g>
	<g
   id="g64"
   style="fill:#f9f9f9">
		<path
   style="fill:#f9f9f9"
   d="M424,156L424,156c-13.255,0-24-10.745-24-24V60h48v72C448,145.255,437.255,156,424,156z"
   id="path62" />
	</g>
	<g
   id="g68">
		<path
   style="fill:#E9001E;"
   d="M472,156L472,156c-13.255,0-24-10.745-24-24V60h32c8.837,0,16,7.163,16,16v56    C496,145.255,485.255,156,472,156z"
   id="path66" />
	</g>
	<g
   id="g72">
		<path
   style="fill:#53DCFF;"
   d="M440,196H240c-4.418,0-8,3.582-8,8v160c0,4.418,3.582,8,8,8h200c4.418,0,8-3.582,8-8V204    C448,199.582,444.418,196,440,196z"
   id="path70" />
	</g>
	<g
   id="g76">
		<path
   style="fill:#B3F4FF;"
   d="M397.588,372H440c4.418,0,8-3.582,8-8v-9.47L289.47,196H232c-2.835,0-5.207,1.56-6.628,3.784    L397.588,372z"
   id="path74" />
	</g>
	<g
   id="g80">
		<polygon
   style="fill:#FFFFFF;"
   points="334.059,196 448,309.941 448,276 368,196   "
   id="polygon78" />
	</g>
	<g
   id="g86">
		<g
   id="g84">
			<path
   style="fill:#7E5C62;"
   d="M440,380H240c-8.82,0-16-7.18-16-16V204c0-8.82,7.18-16,16-16h200c8.82,0,16,7.18,16,16v160     C456,372.82,448.82,380,440,380z M240,204v160h200.016L440,204H240z"
   id="path82" />
		</g>
	</g>
	<g
   id="g90">
		<path
   style="fill:#53DCFF;"
   d="M176,292H96c-4.418,0-8-3.582-8-8v-72c0-4.418,3.582-8,8-8h80c4.418,0,8,3.582,8,8v72    C184,288.418,180.418,292,176,292z"
   id="path88" />
	</g>
	<g
   id="g94">
		<path
   style="fill:#B3F4FF;"
   d="M136.099,204H96c-4.418,0-8,3.582-8,8v11.784L156.216,292H176c4.418,0,8-3.582,8-8v-32.099    L136.099,204z"
   id="path92" />
	</g>
</g>
<g
   id="g98">
</g>
<g
   id="g100">
</g>
<g
   id="g102">
</g>
<g
   id="g104">
</g>
<g
   id="g106">
</g>
<g
   id="g108">
</g>
<g
   id="g110">
</g>
<g
   id="g112">
</g>
<g
   id="g114">
</g>
<g
   id="g116">
</g>
<g
   id="g118">
</g>
<g
   id="g120">
</g>
<g
   id="g122">
</g>
<g
   id="g124">
</g>
<g
   id="g126">
</g>
</svg>